<svg id="Capa_1" data-name="Capa 1" xmlns="http://www.w3.org/2000/svg" viewBox="0 0 117.09 60.98"><title>logo-trilce-colegio</title><path d="M54,11.38a3.74,3.74,0,1,0-3.74-3.74A3.73,3.73,0,0,0,54,11.38" transform="translate(-0.57 -0.88)" style="fill:#f4633a"/><path d="M68.84,33.24a1,1,0,0,1-1-1V.88H61.79V33.63a4.74,4.74,0,0,0,4.74,4.74h4.6V33.24Z" transform="translate(-0.57 -0.88)" style="fill:#f4633a"/><polygon points="0 2.28 0 10.22 5.13 10.22 5.13 8.16 12.97 8.16 12.97 32.37 10.61 32.37 10.61 37.5 21.71 37.5 21.71 32.37 19.36 32.37 19.36 8.16 27.2 8.16 27.2 10.22 32.28 10.22 32.28 2.28 0 2.28" style="fill:#f4633a"/><polygon points="56.48 32.37 56.48 14.15 43.45 14.15 43.45 19.32 50.42 19.32 50.42 32.37 43.45 32.37 43.45 37.5 58.93 37.5 58.93 32.37 56.48 32.37" style="fill:#f4633a"/><polygon points="27.2 14.15 27.2 32.37 24.74 32.37 24.74 37.5 40.41 37.5 40.41 32.37 33.26 32.37 33.26 19.32 40.41 19.32 40.41 14.15 30.88 14.18 27.2 14.15" style="fill:#f4633a"/><path d="M100.93,24.35a4.7,4.7,0,0,1,.64-2.08A5.22,5.22,0,0,1,103,20.73a6.09,6.09,0,0,1,1.87-.94,7.36,7.36,0,0,1,2.22-.33,5,5,0,0,1,3.78,1.32,5,5,0,0,1,1.24,3.57Zm15.64-4.62a8.41,8.41,0,0,0-2.52-3,9.52,9.52,0,0,0-3.37-1.56,14.83,14.83,0,0,0-3.55-.45,15.08,15.08,0,0,0-4.79.74,11,11,0,0,0-3.87,2.24,10.42,10.42,0,0,0-2.6,3.74,13.15,13.15,0,0,0-1,5.22A15.39,15.39,0,0,0,95,28.65a13.67,13.67,0,0,0,.72,3.06,10.35,10.35,0,0,0,4.31,5c2,1.19,4.85,1.67,8.71,1.67s5.81-.16,5.81-.16v-5s-2.7,0-6,0c-4.88,0-6.54-3-6.88-3.81a7.13,7.13,0,0,1-.26-.78h16c.47-2.26.26-6.74-.85-8.92" transform="translate(-0.57 -0.88)" style="fill:#f4633a"/><path d="M92.63,24.45V16.87a.59.59,0,0,0-.35-.55,24.65,24.65,0,0,0-3-1,18.21,18.21,0,0,0-4.76-.59,15.38,15.38,0,0,0-5,.79,11.5,11.5,0,0,0-4,2.33,10.68,10.68,0,0,0-2.65,3.76,12.68,12.68,0,0,0-1,5.08,14.17,14.17,0,0,0,.81,4.89,10,10,0,0,0,2.23,3.63c1.66,1.74,4.89,3,8.63,3.12H91V33.24H85.23a9.35,9.35,0,0,1-5.42-1.72,6.31,6.31,0,0,1-1.4-2.13,6.83,6.83,0,0,1-.5-2.67,6.93,6.93,0,0,1,.61-3,6.38,6.38,0,0,1,1.59-2.1,6.21,6.21,0,0,1,2.22-1.23A8.63,8.63,0,0,1,84.84,20a12.8,12.8,0,0,1,2.81.31v4.17Z" transform="translate(-0.57 -0.88)" style="fill:#f4633a"/><path d="M19.25,59.06c0,1.44-.93,2.79-4,2.79s-4-1.35-4-2.79V52.71c0-1.45.93-2.8,4-2.8s4,1.35,4,2.8v.82c0,.31-.1.43-.4.43H17.43c-.31,0-.43-.12-.43-.43v-.41c0-.86-.6-1.29-1.75-1.29s-1.73.43-1.73,1.29v5.52c0,.86.58,1.29,1.73,1.29S17,59.5,17,58.64V58c0-.31.12-.43.43-.43h1.42c.3,0,.4.12.4.43Z" transform="translate(-0.57 -0.88)" style="fill:#f4633a"/><path d="M27.83,53.12c0-.86-.7-1.29-1.85-1.29s-1.84.43-1.84,1.29v5.52c0,.86.69,1.29,1.84,1.29s1.85-.43,1.85-1.29Zm-6-.41c0-1.45,1.06-2.8,4.17-2.8s4.17,1.35,4.17,2.8v6.35c0,1.44-1.07,2.79-4.17,2.79s-4.17-1.35-4.17-2.79Z" transform="translate(-0.57 -0.88)" style="fill:#f4633a"/><path d="M35.55,59.79h3.83c.29,0,.43.11.43.42v1.08c0,.31-.14.43-.43.43H33.6c-.26,0-.36-.16-.36-.45V50.49c0-.31.1-.44.41-.44h1.49c.31,0,.41.13.41.44Z" transform="translate(-0.57 -0.88)" style="fill:#f4633a"/><path d="M42.69,61.72c-.3,0-.41-.14-.41-.45V50.49c0-.31.11-.44.41-.44h5.87c.3,0,.43.1.43.41v1.08c0,.31-.13.43-.43.43h-4v2.78h3.67c.31,0,.45.1.45.41v1c0,.29-.14.41-.45.41H44.6v3.19h4.14c.31,0,.43.11.43.42v1.08c0,.31-.12.43-.43.43Z" transform="translate(-0.57 -0.88)" style="fill:#f4633a"/><path d="M59.38,55.59c.29,0,.43.1.43.41v3.06c0,1.44-.93,2.79-4,2.79s-4-1.35-4-2.79V52.71c0-1.45.93-2.8,4-2.8s4,1.35,4,2.8v.68c0,.29-.11.43-.4.43H58c-.31,0-.43-.14-.43-.43v-.27c0-.86-.6-1.29-1.75-1.29s-1.74.43-1.74,1.29v5.52c0,.86.59,1.29,1.74,1.29s1.75-.43,1.75-1.27V57.51H55.88c-.31,0-.45-.1-.45-.41V56c0-.31.14-.41.45-.41Z" transform="translate(-0.57 -0.88)" style="fill:#f4633a"/><path d="M65.08,61.27c0,.31-.11.45-.42.45H63.17c-.31,0-.41-.14-.41-.45V50.49c0-.31.1-.44.41-.44h1.49c.31,0,.42.13.42.44Z" transform="translate(-0.57 -0.88)" style="fill:#f4633a"/><path d="M74.15,53.12c0-.86-.7-1.29-1.85-1.29s-1.84.43-1.84,1.29v5.52c0,.86.69,1.29,1.84,1.29s1.85-.43,1.85-1.29Zm-6-.41c0-1.45,1.06-2.8,4.17-2.8s4.17,1.35,4.17,2.8v6.35c0,1.44-1.06,2.79-4.17,2.79s-4.17-1.35-4.17-2.79Z" transform="translate(-0.57 -0.88)" style="fill:#f4633a"/></svg>